<svg version="1.2" xmlns="http://www.w3.org/2000/svg" viewBox="0 0 600 106" width="600" height="106">
	<title>robot-icon-svg</title>
	<style>
		.s0 { fill: #f1472a } 
		.s1 { fill: #111111 } 
	</style>
	<g>
		<path fill-rule="evenodd" class="s0" d="m63.9 18.8v12.1h33.5c5.4 0 9.9 4.5 9.9 9.9v12.4h13.4c1.2 0 2.2 1 2.2 2.2v25.3c0 1.2-1 2.2-2.2 2.2h-13.4v12.4c0 5.5-4.5 9.9-9.9 9.9h-73c-5.4 0-9.9-4.4-9.9-9.9v-12.4h-12.3c-1.2 0-2.2-1-2.2-2.2v-25.3c0-1.2 1-2.2 2.2-2.2h12.4v-12.4c0-5.4 4.4-9.9 9.8-9.9l33.9-0.3-0.4-11.8c-3.8-1.3-6.6-4.9-6.6-9.2 0-5.3 4.3-9.6 9.6-9.6 5.3 0 9.6 4.3 9.6 9.6 0 4.3-2.7 7.9-6.6 9.2zm-26.5 64.6v1.7c0 2 1.6 3.6 3.6 3.6h40.8c2 0 3.7-1.6 3.7-3.6v-1.7c0-2-1.7-3.7-3.7-3.7h-40.8c-2 0-3.6 1.7-3.6 3.7zm31.6-26.1c0 5.4 4.3 9.7 9.7 9.7 5.4 0 9.7-4.3 9.7-9.7 0-5.4-4.3-9.7-9.7-9.7-5.4 0-9.7 4.3-9.7 9.7zm-34.5 0c0 5.4 4.3 9.7 9.7 9.7 5.3 0 9.7-4.3 9.7-9.7 0-5.4-4.3-9.7-9.7-9.7-5.4 0-9.7 4.3-9.7 9.7z"/>
		<path id="Codeloom" class="s1" aria-label="Codeloom"  d="m212.4 55c-1.7-14.2-12.5-22.3-26.7-22.3-16.3 0-28.7 11.4-28.7 31.6 0 20 12.2 31.5 28.7 31.5 15.8 0 25.3-10.4 26.7-21.8h-13.2c-1.2 6.6-6.4 10.3-13.3 10.3-9.3 0-15.7-6.9-15.7-20 0-12.8 6.3-20.1 15.8-20.1 7.1 0 12.2 4.1 13.2 10.8zm30 40.9c14 0 22.7-9.6 22.7-23.8 0-14.3-8.7-23.8-22.7-23.8-14 0-22.7 9.5-22.7 23.8 0 14.2 8.7 23.8 22.7 23.8zm0-9.9c-6.4 0-9.7-5.9-9.7-14 0-8 3.3-14 9.7-14 6.4 0 9.7 6 9.7 14 0 8.1-3.3 14-9.7 14zm48 9.8c7.5 0 11.3-4.3 13.1-8.2h0.6v7.4h12.6v-61.5h-12.8v23.1h-0.4c-1.7-3.7-5.4-8.3-13.1-8.3-10.1 0-18.7 7.8-18.7 23.7 0 15.4 8.2 23.8 18.7 23.8zm4.1-10.2c-6.3 0-9.7-5.6-9.7-13.7 0-7.9 3.3-13.4 9.7-13.4 6.2 0 9.7 5.2 9.7 13.4 0 8.3-3.6 13.7-9.7 13.7zm53.7 10.3c11.4 0 19.1-5.6 20.9-14.1l-11.9-0.8c-1.3 3.5-4.6 5.4-8.8 5.4-6.4 0-10.5-4.3-10.5-11.2h31.4v-3.5c0-15.7-9.5-23.4-21.6-23.4-13.6 0-22.4 9.6-22.4 23.8 0 14.7 8.7 23.8 22.9 23.8zm-10.3-28.6c0.3-5.3 4.3-9.5 10-9.5 5.5 0 9.4 4 9.4 9.5zm52.5-33.8h-12.8v61.5h12.8zm31.1 62.4c14 0 22.7-9.6 22.7-23.8 0-14.3-8.7-23.8-22.7-23.8-14 0-22.7 9.5-22.7 23.8 0 14.2 8.7 23.8 22.7 23.8zm0.1-9.9c-6.5 0-9.8-5.9-9.8-14 0-8 3.3-14 9.8-14 6.3 0 9.6 6 9.6 14 0 8.1-3.3 14-9.6 14zm51.8 9.9c14 0 22.7-9.6 22.7-23.8 0-14.3-8.7-23.8-22.7-23.8-14 0-22.7 9.5-22.7 23.8 0 14.2 8.7 23.8 22.7 23.8zm0-9.9c-6.4 0-9.7-5.9-9.7-14 0-8 3.3-14 9.7-14 6.4 0 9.7 6 9.7 14 0 8.1-3.3 14-9.7 14zm31 9h12.8v-27.7c0-5.1 3.3-8.5 7.5-8.5 4.2 0 7.1 2.9 7.1 7.4v28.8h12.4v-28.2c0-4.7 2.7-8 7.3-8 4.1 0 7.2 2.6 7.2 7.7v28.5h12.8v-31c0-10-6-15.7-14.6-15.7-6.7 0-12 3.4-13.9 8.7h-0.5c-1.4-5.3-6.2-8.7-12.5-8.7-6.2 0-10.9 3.3-12.8 8.7h-0.6v-8.1h-12.2z"/>
	</g>
</svg>